<mxfile host="app.diagrams.net" modified="2023-05-22T15:37:39.519Z" agent="Mozilla/5.0 (Windows NT 10.0; Win64; x64) AppleWebKit/537.36 (KHTML, like Gecko) Chrome/113.0.0.0 Safari/537.36" etag="Xd7CIaxGDrprEdJKdNRi" version="21.3.2" type="google">
  <diagram name="Page-1" id="dOTcJNG6GMJbJNmJ9P3h">
    <mxGraphModel grid="1" page="1" gridSize="10" guides="1" tooltips="1" connect="1" arrows="1" fold="1" pageScale="1" pageWidth="1169" pageHeight="1654" math="0" shadow="0">
      <root>
        <mxCell id="0" />
        <mxCell id="1" parent="0" />
        <mxCell id="6qjmJasBzLiEkd1yI-6T-1" value="Пользователь создал обращение / &lt;br&gt;пользователь получает сообщение, что обращение зафиксировано&lt;span id=&quot;docs-internal-guid-8e54dc8f-7fff-5573-bb61-48fd9769e941&quot;&gt;&lt;/span&gt;" style="edgeStyle=orthogonalEdgeStyle;rounded=0;orthogonalLoop=1;jettySize=auto;html=1;" edge="1" parent="1" source="6qjmJasBzLiEkd1yI-6T-2" target="6qjmJasBzLiEkd1yI-6T-5">
          <mxGeometry relative="1" as="geometry" />
        </mxCell>
        <mxCell id="6qjmJasBzLiEkd1yI-6T-2" value="" style="ellipse;html=1;shape=startState;fillColor=#000000;strokeColor=#ff0000;" vertex="1" parent="1">
          <mxGeometry x="465" y="50" width="30" height="30" as="geometry" />
        </mxCell>
        <mxCell id="6qjmJasBzLiEkd1yI-6T-3" value="" style="ellipse;html=1;shape=endState;fillColor=#000000;strokeColor=#ff0000;" vertex="1" parent="1">
          <mxGeometry x="480" y="1330" width="30" height="30" as="geometry" />
        </mxCell>
        <mxCell id="6qjmJasBzLiEkd1yI-6T-4" value="Обращение попало в баг-трекер и его прочитал специалист первой линии поддержки" style="edgeStyle=orthogonalEdgeStyle;rounded=0;orthogonalLoop=1;jettySize=auto;html=1;" edge="1" parent="1" source="6qjmJasBzLiEkd1yI-6T-5" target="6qjmJasBzLiEkd1yI-6T-8">
          <mxGeometry relative="1" as="geometry" />
        </mxCell>
        <mxCell id="6qjmJasBzLiEkd1yI-6T-5" value="Статус обращения &quot;New&quot;&lt;span id=&quot;docs-internal-guid-d94bd79f-7fff-6f63-fff6-67095dc99047&quot;&gt;&lt;/span&gt;" style="ellipse;whiteSpace=wrap;html=1;aspect=fixed;" vertex="1" parent="1">
          <mxGeometry x="440" y="150" width="80" height="80" as="geometry" />
        </mxCell>
        <mxCell id="6qjmJasBzLiEkd1yI-6T-6" value="Анализ ситуации: дефект. &lt;br&gt;Обращение передано в отдел с соответствующей экспертизой&lt;br&gt;&amp;nbsp;/ отправка пользователю сообщения, что обращение принято в работу" style="edgeStyle=orthogonalEdgeStyle;rounded=0;orthogonalLoop=1;jettySize=auto;html=1;" edge="1" parent="1" source="6qjmJasBzLiEkd1yI-6T-8" target="6qjmJasBzLiEkd1yI-6T-10">
          <mxGeometry relative="1" as="geometry" />
        </mxCell>
        <mxCell id="6qjmJasBzLiEkd1yI-6T-7" value="Пользователь обратился за помощью с интерфейсом в поддержку;" style="edgeStyle=orthogonalEdgeStyle;rounded=0;orthogonalLoop=1;jettySize=auto;html=1;entryX=0.042;entryY=0.251;entryDx=0;entryDy=0;entryPerimeter=0;" edge="1" parent="1" source="6qjmJasBzLiEkd1yI-6T-8" target="6qjmJasBzLiEkd1yI-6T-26">
          <mxGeometry x="0.5261" y="-40" relative="1" as="geometry">
            <Array as="points">
              <mxPoint x="170" y="330" />
              <mxPoint x="170" y="1210" />
            </Array>
            <mxPoint as="offset" />
          </mxGeometry>
        </mxCell>
        <mxCell id="ss67fsxR-yYQ9N3D36vu-2" value="пользователь решил предложить новую функцию;&lt;br style=&quot;border-color: var(--border-color);&quot;&gt;корректное поведение показалось пользователю неверным и нелогичным" style="edgeStyle=orthogonalEdgeStyle;rounded=0;orthogonalLoop=1;jettySize=auto;html=1;exitX=0;exitY=1;exitDx=0;exitDy=0;entryX=0.063;entryY=0.225;entryDx=0;entryDy=0;entryPerimeter=0;" edge="1" parent="1" source="6qjmJasBzLiEkd1yI-6T-8" target="6qjmJasBzLiEkd1yI-6T-24">
          <mxGeometry x="-0.3837" relative="1" as="geometry">
            <Array as="points">
              <mxPoint x="210" y="358" />
              <mxPoint x="210" y="1160" />
              <mxPoint x="525" y="1160" />
            </Array>
            <mxPoint as="offset" />
          </mxGeometry>
        </mxCell>
        <mxCell id="6qjmJasBzLiEkd1yI-6T-8" value="Статус обращения &quot;Processing&quot;&lt;span id=&quot;docs-internal-guid-d94bd79f-7fff-6f63-fff6-67095dc99047&quot;&gt;&lt;/span&gt;" style="ellipse;whiteSpace=wrap;html=1;aspect=fixed;" vertex="1" parent="1">
          <mxGeometry x="440" y="290" width="80" height="80" as="geometry" />
        </mxCell>
        <mxCell id="6qjmJasBzLiEkd1yI-6T-9" value="устраниение проблемы разработчиком, проверка нужна /&amp;nbsp;&lt;br style=&quot;border-color: var(--border-color);&quot;&gt;пользователь получает уведомление" style="edgeStyle=orthogonalEdgeStyle;rounded=0;orthogonalLoop=1;jettySize=auto;html=1;exitX=0.5;exitY=1;exitDx=0;exitDy=0;" edge="1" parent="1" source="6qjmJasBzLiEkd1yI-6T-10" target="6qjmJasBzLiEkd1yI-6T-12">
          <mxGeometry relative="1" as="geometry">
            <mxPoint x="477.5" y="680" as="sourcePoint" />
          </mxGeometry>
        </mxCell>
        <mxCell id="6qjmJasBzLiEkd1yI-6T-10" value="Статус обращения &quot;In Work&quot;&lt;span id=&quot;docs-internal-guid-d94bd79f-7fff-6f63-fff6-67095dc99047&quot;&gt;&lt;/span&gt;" style="ellipse;whiteSpace=wrap;html=1;aspect=fixed;" vertex="1" parent="1">
          <mxGeometry x="440" y="450" width="80" height="80" as="geometry" />
        </mxCell>
        <mxCell id="6qjmJasBzLiEkd1yI-6T-11" value="Фикс в процессе проверки" style="edgeStyle=orthogonalEdgeStyle;rounded=0;orthogonalLoop=1;jettySize=auto;html=1;" edge="1" parent="1" source="6qjmJasBzLiEkd1yI-6T-12" target="6qjmJasBzLiEkd1yI-6T-14">
          <mxGeometry relative="1" as="geometry" />
        </mxCell>
        <mxCell id="6qjmJasBzLiEkd1yI-6T-12" value="Статус обращения &quot;Ready for test&quot;&lt;span id=&quot;docs-internal-guid-d94bd79f-7fff-6f63-fff6-67095dc99047&quot;&gt;&lt;/span&gt;, не виден пользователю" style="ellipse;whiteSpace=wrap;html=1;aspect=fixed;" vertex="1" parent="1">
          <mxGeometry x="425" y="720" width="105" height="105" as="geometry" />
        </mxCell>
        <mxCell id="6qjmJasBzLiEkd1yI-6T-13" value="Успешная проверка" style="edgeStyle=orthogonalEdgeStyle;rounded=0;orthogonalLoop=1;jettySize=auto;html=1;" edge="1" parent="1" source="6qjmJasBzLiEkd1yI-6T-14" target="6qjmJasBzLiEkd1yI-6T-17">
          <mxGeometry x="0.646" relative="1" as="geometry">
            <Array as="points">
              <mxPoint x="560" y="900" />
            </Array>
            <mxPoint as="offset" />
          </mxGeometry>
        </mxCell>
        <mxCell id="6qjmJasBzLiEkd1yI-6T-14" value="Статус обращения &quot;Testing&quot;&lt;span id=&quot;docs-internal-guid-d94bd79f-7fff-6f63-fff6-67095dc99047&quot;&gt;&lt;/span&gt;, не виден пользователю" style="ellipse;whiteSpace=wrap;html=1;aspect=fixed;" vertex="1" parent="1">
          <mxGeometry x="427.5" y="857" width="100" height="100" as="geometry" />
        </mxCell>
        <mxCell id="6qjmJasBzLiEkd1yI-6T-15" value="Проблема не решена" style="edgeStyle=orthogonalEdgeStyle;rounded=0;orthogonalLoop=1;jettySize=auto;html=1;exitX=0;exitY=0.5;exitDx=0;exitDy=0;" edge="1" parent="1" source="6qjmJasBzLiEkd1yI-6T-14" target="6qjmJasBzLiEkd1yI-6T-19">
          <mxGeometry x="0.5556" relative="1" as="geometry">
            <mxPoint as="offset" />
          </mxGeometry>
        </mxCell>
        <mxCell id="6qjmJasBzLiEkd1yI-6T-16" value="Полное исправление инцидента на продакшене /&amp;nbsp;&lt;br&gt;пользователь получает уведомление, что проблема решена" style="edgeStyle=orthogonalEdgeStyle;rounded=0;orthogonalLoop=1;jettySize=auto;html=1;entryX=0.5;entryY=0;entryDx=0;entryDy=0;" edge="1" parent="1" source="6qjmJasBzLiEkd1yI-6T-17" target="6qjmJasBzLiEkd1yI-6T-24">
          <mxGeometry x="-0.5" y="10" relative="1" as="geometry">
            <mxPoint x="750" y="1027" as="targetPoint" />
            <mxPoint as="offset" />
          </mxGeometry>
        </mxCell>
        <mxCell id="6qjmJasBzLiEkd1yI-6T-17" value="Статус обращения &quot;Ready for release&quot;&lt;span id=&quot;docs-internal-guid-d94bd79f-7fff-6f63-fff6-67095dc99047&quot;&gt;&lt;/span&gt;, не виден пользователю" style="ellipse;whiteSpace=wrap;html=1;aspect=fixed;" vertex="1" parent="1">
          <mxGeometry x="505" y="980" width="110" height="110" as="geometry" />
        </mxCell>
        <mxCell id="ss67fsxR-yYQ9N3D36vu-1" value="Отправка в очередь на доработку" style="edgeStyle=orthogonalEdgeStyle;rounded=0;orthogonalLoop=1;jettySize=auto;html=1;entryX=0;entryY=0.5;entryDx=0;entryDy=0;" edge="1" parent="1" source="6qjmJasBzLiEkd1yI-6T-19" target="6qjmJasBzLiEkd1yI-6T-12">
          <mxGeometry relative="1" as="geometry">
            <Array as="points">
              <mxPoint x="300" y="1035" />
              <mxPoint x="300" y="773" />
            </Array>
          </mxGeometry>
        </mxCell>
        <mxCell id="6qjmJasBzLiEkd1yI-6T-19" value="Статус обращения &quot;Need fixing&quot;&lt;span id=&quot;docs-internal-guid-d94bd79f-7fff-6f63-fff6-67095dc99047&quot;&gt;&lt;/span&gt;, не виден пользователю" style="ellipse;whiteSpace=wrap;html=1;aspect=fixed;" vertex="1" parent="1">
          <mxGeometry x="340" y="980" width="110" height="110" as="geometry" />
        </mxCell>
        <mxCell id="6qjmJasBzLiEkd1yI-6T-21" value="устраниение проблемы разработчиком, проверка не нужна /&amp;nbsp;&lt;br&gt;пользователь получает уведомление" style="edgeStyle=orthogonalEdgeStyle;rounded=0;orthogonalLoop=1;jettySize=auto;html=1;entryX=1;entryY=0.5;entryDx=0;entryDy=0;exitX=1;exitY=0.5;exitDx=0;exitDy=0;" edge="1" parent="1" source="6qjmJasBzLiEkd1yI-6T-10" target="6qjmJasBzLiEkd1yI-6T-17">
          <mxGeometry x="-0.6" y="20" relative="1" as="geometry">
            <mxPoint x="840" y="640" as="targetPoint" />
            <Array as="points">
              <mxPoint x="740" y="490" />
              <mxPoint x="740" y="1035" />
            </Array>
            <mxPoint as="offset" />
          </mxGeometry>
        </mxCell>
        <mxCell id="6qjmJasBzLiEkd1yI-6T-23" style="edgeStyle=orthogonalEdgeStyle;rounded=0;orthogonalLoop=1;jettySize=auto;html=1;entryX=0.5;entryY=0;entryDx=0;entryDy=0;" edge="1" parent="1" source="6qjmJasBzLiEkd1yI-6T-24" target="6qjmJasBzLiEkd1yI-6T-3">
          <mxGeometry relative="1" as="geometry">
            <Array as="points">
              <mxPoint x="560" y="1300" />
              <mxPoint x="495" y="1300" />
            </Array>
          </mxGeometry>
        </mxCell>
        <mxCell id="6qjmJasBzLiEkd1yI-6T-24" value="Статус обращения &quot;Problem is solved&quot;&lt;span id=&quot;docs-internal-guid-d94bd79f-7fff-6f63-fff6-67095dc99047&quot;&gt;&lt;/span&gt;" style="ellipse;whiteSpace=wrap;html=1;aspect=fixed;" vertex="1" parent="1">
          <mxGeometry x="520" y="1190" width="80" height="80" as="geometry" />
        </mxCell>
        <mxCell id="6qjmJasBzLiEkd1yI-6T-25" style="edgeStyle=orthogonalEdgeStyle;rounded=0;orthogonalLoop=1;jettySize=auto;html=1;entryX=0.5;entryY=0;entryDx=0;entryDy=0;" edge="1" parent="1" source="6qjmJasBzLiEkd1yI-6T-26" target="6qjmJasBzLiEkd1yI-6T-3">
          <mxGeometry relative="1" as="geometry">
            <Array as="points">
              <mxPoint x="400" y="1300" />
              <mxPoint x="495" y="1300" />
            </Array>
          </mxGeometry>
        </mxCell>
        <mxCell id="6qjmJasBzLiEkd1yI-6T-26" value="Статус обращения &quot;Canceled&quot;&lt;span id=&quot;docs-internal-guid-d94bd79f-7fff-6f63-fff6-67095dc99047&quot;&gt;&lt;/span&gt;" style="ellipse;whiteSpace=wrap;html=1;aspect=fixed;" vertex="1" parent="1">
          <mxGeometry x="360" y="1190" width="80" height="80" as="geometry" />
        </mxCell>
      </root>
    </mxGraphModel>
  </diagram>
</mxfile>
